<?xml version="1.0" encoding="UTF-8" standalone="no"?><svg xmlns="http://www.w3.org/2000/svg" xmlns:xlink="http://www.w3.org/1999/xlink" contentStyleType="text/css" height="444px" preserveAspectRatio="none" style="width:560px;height:444px;background:#FFFFFF;" version="1.1" viewBox="0 0 560 444" width="560px" zoomAndPan="magnify"><defs/><g><!--MD5=[62f00e8e384fb1bdc40e3d1254f5b290]
class Reseau--><g id="elem_Reseau"><rect codeLine="4" fill="#F1F1F1" height="145.6563" id="Reseau" rx="2.5" ry="2.5" style="stroke:#181818;stroke-width:0.5;" width="385" x="7" y="7"/><ellipse cx="170.75" cy="23" fill="#ADD1B2" rx="11" ry="11" style="stroke:#181818;stroke-width:1.0;"/><path d="M173.5156,18.875 Q173.6719,18.6563 173.8594,18.5469 Q174.0469,18.4375 174.2656,18.4375 Q174.6406,18.4375 174.875,18.6953 Q175.1094,18.9531 175.1094,19.5625 L175.1094,21.0156 Q175.1094,21.625 174.875,21.8906 Q174.6406,22.1563 174.2656,22.1563 Q173.9219,22.1563 173.7188,21.9531 Q173.5156,21.7656 173.4063,21.25 Q173.3594,20.8906 173.1719,20.7031 Q172.8438,20.3281 172.2344,20.1094 Q171.625,19.8906 171,19.8906 Q170.2344,19.8906 169.6016,20.2188 Q168.9688,20.5469 168.4766,21.2969 Q167.9844,22.0469 167.9844,23.0781 L167.9844,24.1719 Q167.9844,25.4063 168.875,26.2266 Q169.7656,27.0469 171.3594,27.0469 Q172.2969,27.0469 172.9531,26.7969 Q173.3438,26.6406 173.7656,26.2031 Q174.0313,25.9375 174.1797,25.8594 Q174.3281,25.7813 174.5313,25.7813 Q174.8594,25.7813 175.1172,26.0391 Q175.375,26.2969 175.375,26.6406 Q175.375,26.9844 175.0313,27.3906 Q174.5313,27.9688 173.7344,28.2969 Q172.6563,28.75 171.3594,28.75 Q169.8438,28.75 168.6406,28.125 Q167.6563,27.625 166.9688,26.5547 Q166.2813,25.4844 166.2813,24.2031 L166.2813,23.0469 Q166.2813,21.7188 166.8984,20.5703 Q167.5156,19.4219 168.6094,18.8047 Q169.7031,18.1875 170.9375,18.1875 Q171.6719,18.1875 172.3203,18.3516 Q172.9688,18.5156 173.5156,18.875 Z " fill="#000000"/><text fill="#000000" font-family="sans-serif" font-size="14" lengthAdjust="spacing" textLength="49" x="191.25" y="28.7285">Reseau</text><line style="stroke:#181818;stroke-width:0.5;" x1="8" x2="391" y1="39" y2="39"/><ellipse cx="18" cy="53.3047" fill="#84BE84" rx="3" ry="3" style="stroke:#038048;stroke-width:1.0;"/><text fill="#000000" font-family="sans-serif" font-size="14" lengthAdjust="spacing" textLength="73" x="27" y="57.5332">creerLigne(</text><text fill="#D2453F" font-family="sans-serif" font-size="14" lengthAdjust="spacing" textLength="15" x="100" y="57.5332">int</text><text fill="#000000" font-family="sans-serif" font-size="14" lengthAdjust="spacing" textLength="4" x="115" y="57.5332">,</text><text fill="#428ECD" font-family="sans-serif" font-size="14" lengthAdjust="spacing" textLength="44" x="123" y="57.5332">Station</text><text fill="#000000" font-family="sans-serif" font-size="14" lengthAdjust="spacing" textLength="4" x="167" y="57.5332">,</text><text fill="#428ECD" font-family="sans-serif" font-size="14" lengthAdjust="spacing" textLength="44" x="175" y="57.5332">Station</text><text fill="#000000" font-family="sans-serif" font-size="14" lengthAdjust="spacing" textLength="13" x="219" y="57.5332">) :</text><text fill="#008000" font-family="sans-serif" font-size="14" lengthAdjust="spacing" textLength="26" x="236" y="57.5332">void</text><ellipse cx="18" cy="70.9141" fill="#84BE84" rx="3" ry="3" style="stroke:#038048;stroke-width:1.0;"/><text fill="#000000" font-family="sans-serif" font-size="14" lengthAdjust="spacing" textLength="73" x="27" y="75.1426">creerLigne(</text><text fill="#D2453F" font-family="sans-serif" font-size="14" lengthAdjust="spacing" textLength="15" x="100" y="75.1426">int</text><text fill="#000000" font-family="sans-serif" font-size="14" lengthAdjust="spacing" textLength="4" x="115" y="75.1426">,</text><text fill="#428ECD" font-family="sans-serif" font-size="14" lengthAdjust="spacing" textLength="73" x="123" y="75.1426">List&lt;Ligne&gt;</text><text fill="#000000" font-family="sans-serif" font-size="14" lengthAdjust="spacing" textLength="13" x="196" y="75.1426">) :</text><text fill="#008000" font-family="sans-serif" font-size="14" lengthAdjust="spacing" textLength="26" x="213" y="75.1426">void</text><ellipse cx="18" cy="88.5234" fill="#84BE84" rx="3" ry="3" style="stroke:#038048;stroke-width:1.0;"/><text fill="#000000" font-family="sans-serif" font-size="14" lengthAdjust="spacing" textLength="102" x="27" y="92.752">recupererLigne(</text><text fill="#D2453F" font-family="sans-serif" font-size="14" lengthAdjust="spacing" textLength="15" x="129" y="92.752">int</text><text fill="#000000" font-family="sans-serif" font-size="14" lengthAdjust="spacing" textLength="13" x="144" y="92.752">) :</text><text fill="#428ECD" font-family="sans-serif" font-size="14" lengthAdjust="spacing" textLength="35" x="161" y="92.752">Ligne</text><ellipse cx="18" cy="106.1328" fill="#84BE84" rx="3" ry="3" style="stroke:#038048;stroke-width:1.0;"/><text fill="#000000" font-family="sans-serif" font-size="14" lengthAdjust="spacing" textLength="225" x="27" y="110.3613">recupererLignesDesservantStation(</text><text fill="#428ECD" font-family="sans-serif" font-size="14" lengthAdjust="spacing" textLength="44" x="252" y="110.3613">Station</text><text fill="#000000" font-family="sans-serif" font-size="14" lengthAdjust="spacing" textLength="13" x="296" y="110.3613">) :</text><text fill="#428ECD" font-family="sans-serif" font-size="14" lengthAdjust="spacing" textLength="22" x="313" y="110.3613">List</text><text fill="#000000" font-family="sans-serif" font-size="14" lengthAdjust="spacing" textLength="8" x="335" y="110.3613">&lt;</text><text fill="#F69C3E" font-family="sans-serif" font-size="14" lengthAdjust="spacing" textLength="35" x="343" y="110.3613">Ligne</text><text fill="#000000" font-family="sans-serif" font-size="14" lengthAdjust="spacing" textLength="8" x="378" y="110.3613">&gt;</text><ellipse cx="18" cy="123.7422" fill="#84BE84" rx="3" ry="3" style="stroke:#038048;stroke-width:1.0;"/><text fill="#000000" font-family="sans-serif" font-size="14" lengthAdjust="spacing" textLength="131" x="27" y="127.9707">recupererStations() :</text><text fill="#428ECD" font-family="sans-serif" font-size="14" lengthAdjust="spacing" textLength="22" x="162" y="127.9707">List</text><text fill="#000000" font-family="sans-serif" font-size="14" lengthAdjust="spacing" textLength="8" x="184" y="127.9707">&lt;</text><text fill="#F69C3E" font-family="sans-serif" font-size="14" lengthAdjust="spacing" textLength="44" x="192" y="127.9707">Station</text><text fill="#000000" font-family="sans-serif" font-size="14" lengthAdjust="spacing" textLength="8" x="236" y="127.9707">&gt;</text><ellipse cx="18" cy="141.3516" fill="#84BE84" rx="3" ry="3" style="stroke:#038048;stroke-width:1.0;"/><text fill="#000000" font-family="sans-serif" font-size="14" lengthAdjust="spacing" textLength="164" x="27" y="145.5801">recupererItineraireLignes(</text><text fill="#428ECD" font-family="sans-serif" font-size="14" lengthAdjust="spacing" textLength="44" x="191" y="145.5801">Station</text><text fill="#000000" font-family="sans-serif" font-size="14" lengthAdjust="spacing" textLength="4" x="235" y="145.5801">,</text><text fill="#428ECD" font-family="sans-serif" font-size="14" lengthAdjust="spacing" textLength="44" x="243" y="145.5801">Station</text><text fill="#000000" font-family="sans-serif" font-size="14" lengthAdjust="spacing" textLength="13" x="287" y="145.5801">) :</text><text fill="#428ECD" font-family="sans-serif" font-size="14" lengthAdjust="spacing" textLength="22" x="304" y="145.5801">List</text><text fill="#000000" font-family="sans-serif" font-size="14" lengthAdjust="spacing" textLength="8" x="326" y="145.5801">&lt;</text><text fill="#F69C3E" font-family="sans-serif" font-size="14" lengthAdjust="spacing" textLength="35" x="334" y="145.5801">Ligne</text><text fill="#000000" font-family="sans-serif" font-size="14" lengthAdjust="spacing" textLength="8" x="369" y="145.5801">&gt;</text></g><!--MD5=[32f8e77670dc7b12ba11221465fb86a4]
class Station--><g id="elem_Station"><rect codeLine="13" fill="#F1F1F1" height="83.2188" id="Station" rx="2.5" ry="2.5" style="stroke:#181818;stroke-width:0.5;" width="133" x="420" y="292.5"/><ellipse cx="460.65" cy="308.5" fill="#ADD1B2" rx="11" ry="11" style="stroke:#181818;stroke-width:1.0;"/><path d="M463.4156,304.375 Q463.5719,304.1563 463.7594,304.0469 Q463.9469,303.9375 464.1656,303.9375 Q464.5406,303.9375 464.775,304.1953 Q465.0094,304.4531 465.0094,305.0625 L465.0094,306.5156 Q465.0094,307.125 464.775,307.3906 Q464.5406,307.6563 464.1656,307.6563 Q463.8219,307.6563 463.6188,307.4531 Q463.4156,307.2656 463.3063,306.75 Q463.2594,306.3906 463.0719,306.2031 Q462.7438,305.8281 462.1344,305.6094 Q461.525,305.3906 460.9,305.3906 Q460.1344,305.3906 459.5016,305.7188 Q458.8688,306.0469 458.3766,306.7969 Q457.8844,307.5469 457.8844,308.5781 L457.8844,309.6719 Q457.8844,310.9063 458.775,311.7266 Q459.6656,312.5469 461.2594,312.5469 Q462.1969,312.5469 462.8531,312.2969 Q463.2438,312.1406 463.6656,311.7031 Q463.9313,311.4375 464.0797,311.3594 Q464.2281,311.2813 464.4313,311.2813 Q464.7594,311.2813 465.0172,311.5391 Q465.275,311.7969 465.275,312.1406 Q465.275,312.4844 464.9313,312.8906 Q464.4313,313.4688 463.6344,313.7969 Q462.5563,314.25 461.2594,314.25 Q459.7438,314.25 458.5406,313.625 Q457.5563,313.125 456.8688,312.0547 Q456.1813,310.9844 456.1813,309.7031 L456.1813,308.5469 Q456.1813,307.2188 456.7984,306.0703 Q457.4156,304.9219 458.5094,304.3047 Q459.6031,303.6875 460.8375,303.6875 Q461.5719,303.6875 462.2203,303.8516 Q462.8688,304.0156 463.4156,304.375 Z " fill="#000000"/><text fill="#000000" font-family="sans-serif" font-size="14" lengthAdjust="spacing" textLength="44" x="480.35" y="314.2285">Station</text><line style="stroke:#181818;stroke-width:0.5;" x1="421" x2="552" y1="324.5" y2="324.5"/><rect fill="none" height="6" style="stroke:#C82930;stroke-width:1.0;" width="6" x="428" y="335.8047"/><text fill="#000000" font-family="sans-serif" font-size="14" lengthAdjust="spacing" textLength="35" x="440" y="343.0332">nom :</text><text fill="#428ECD" font-family="sans-serif" font-size="14" lengthAdjust="spacing" textLength="37" x="479" y="343.0332">String</text><line style="stroke:#181818;stroke-width:0.5;" x1="421" x2="552" y1="350.1094" y2="350.1094"/><ellipse cx="431" cy="364.4141" fill="#84BE84" rx="3" ry="3" style="stroke:#038048;stroke-width:1.0;"/><text fill="#000000" font-family="sans-serif" font-size="14" lengthAdjust="spacing" textLength="66" x="440" y="368.6426">getNom() :</text><text fill="#428ECD" font-family="sans-serif" font-size="14" lengthAdjust="spacing" textLength="37" x="510" y="368.6426">String</text></g><!--MD5=[c4d7de58b6b74e0d187415ecc51ab732]
class Ligne--><g id="elem_Ligne"><rect codeLine="18" fill="#F1F1F1" height="206.4844" id="Ligne" rx="2.5" ry="2.5" style="stroke:#181818;stroke-width:0.5;" width="310" x="44.5" y="231"/><ellipse cx="177.75" cy="247" fill="#ADD1B2" rx="11" ry="11" style="stroke:#181818;stroke-width:1.0;"/><path d="M180.5156,242.875 Q180.6719,242.6563 180.8594,242.5469 Q181.0469,242.4375 181.2656,242.4375 Q181.6406,242.4375 181.875,242.6953 Q182.1094,242.9531 182.1094,243.5625 L182.1094,245.0156 Q182.1094,245.625 181.875,245.8906 Q181.6406,246.1563 181.2656,246.1563 Q180.9219,246.1563 180.7188,245.9531 Q180.5156,245.7656 180.4063,245.25 Q180.3594,244.8906 180.1719,244.7031 Q179.8438,244.3281 179.2344,244.1094 Q178.625,243.8906 178,243.8906 Q177.2344,243.8906 176.6016,244.2188 Q175.9688,244.5469 175.4766,245.2969 Q174.9844,246.0469 174.9844,247.0781 L174.9844,248.1719 Q174.9844,249.4063 175.875,250.2266 Q176.7656,251.0469 178.3594,251.0469 Q179.2969,251.0469 179.9531,250.7969 Q180.3438,250.6406 180.7656,250.2031 Q181.0313,249.9375 181.1797,249.8594 Q181.3281,249.7813 181.5313,249.7813 Q181.8594,249.7813 182.1172,250.0391 Q182.375,250.2969 182.375,250.6406 Q182.375,250.9844 182.0313,251.3906 Q181.5313,251.9688 180.7344,252.2969 Q179.6563,252.75 178.3594,252.75 Q176.8438,252.75 175.6406,252.125 Q174.6563,251.625 173.9688,250.5547 Q173.2813,249.4844 173.2813,248.2031 L173.2813,247.0469 Q173.2813,245.7188 173.8984,244.5703 Q174.5156,243.4219 175.6094,242.8047 Q176.7031,242.1875 177.9375,242.1875 Q178.6719,242.1875 179.3203,242.3516 Q179.9688,242.5156 180.5156,242.875 Z " fill="#000000"/><text fill="#000000" font-family="sans-serif" font-size="14" lengthAdjust="spacing" textLength="35" x="198.25" y="252.7285">Ligne</text><line style="stroke:#181818;stroke-width:0.5;" x1="45.5" x2="353.5" y1="263" y2="263"/><rect fill="none" height="6" style="stroke:#C82930;stroke-width:1.0;" width="6" x="52.5" y="274.3047"/><text fill="#000000" font-family="sans-serif" font-size="14" lengthAdjust="spacing" textLength="59" x="64.5" y="281.5332">noLigne :</text><text fill="#D2453F" font-family="sans-serif" font-size="14" lengthAdjust="spacing" textLength="15" x="127.5" y="281.5332">int</text><line style="stroke:#181818;stroke-width:0.5;" x1="45.5" x2="353.5" y1="288.6094" y2="288.6094"/><ellipse cx="55.5" cy="302.9141" fill="#84BE84" rx="3" ry="3" style="stroke:#038048;stroke-width:1.0;"/><text fill="#000000" font-family="sans-serif" font-size="14" lengthAdjust="spacing" textLength="40" x="64.5" y="307.1426">Ligne(</text><text fill="#D2453F" font-family="sans-serif" font-size="14" lengthAdjust="spacing" textLength="15" x="104.5" y="307.1426">int</text><text fill="#000000" font-family="sans-serif" font-size="14" lengthAdjust="spacing" textLength="4" x="119.5" y="307.1426">,</text><text fill="#428ECD" font-family="sans-serif" font-size="14" lengthAdjust="spacing" textLength="44" x="127.5" y="307.1426">Station</text><text fill="#000000" font-family="sans-serif" font-size="14" lengthAdjust="spacing" textLength="4" x="171.5" y="307.1426">,</text><text fill="#428ECD" font-family="sans-serif" font-size="14" lengthAdjust="spacing" textLength="44" x="179.5" y="307.1426">Station</text><text fill="#000000" font-family="sans-serif" font-size="14" lengthAdjust="spacing" textLength="13" x="223.5" y="307.1426">) :</text><ellipse cx="55.5" cy="320.5234" fill="#84BE84" rx="3" ry="3" style="stroke:#038048;stroke-width:1.0;"/><text fill="#000000" font-family="sans-serif" font-size="14" lengthAdjust="spacing" textLength="65" x="64.5" y="324.752">afficher() :</text><text fill="#008000" font-family="sans-serif" font-size="14" lengthAdjust="spacing" textLength="26" x="133.5" y="324.752">void</text><ellipse cx="55.5" cy="338.1328" fill="#84BE84" rx="3" ry="3" style="stroke:#038048;stroke-width:1.0;"/><text fill="#000000" font-family="sans-serif" font-size="14" lengthAdjust="spacing" textLength="75" x="64.5" y="342.3613">getTrajet() :</text><text fill="#428ECD" font-family="sans-serif" font-size="14" lengthAdjust="spacing" textLength="22" x="143.5" y="342.3613">List</text><text fill="#000000" font-family="sans-serif" font-size="14" lengthAdjust="spacing" textLength="8" x="165.5" y="342.3613">&lt;</text><text fill="#F69C3E" font-family="sans-serif" font-size="14" lengthAdjust="spacing" textLength="44" x="173.5" y="342.3613">Station</text><text fill="#000000" font-family="sans-serif" font-size="14" lengthAdjust="spacing" textLength="8" x="217.5" y="342.3613">&gt;</text><ellipse cx="55.5" cy="355.7422" fill="#84BE84" rx="3" ry="3" style="stroke:#038048;stroke-width:1.0;"/><text fill="#000000" font-family="sans-serif" font-size="14" lengthAdjust="spacing" textLength="90" x="64.5" y="359.9707">getNoLigne() :</text><text fill="#D2453F" font-family="sans-serif" font-size="14" lengthAdjust="spacing" textLength="15" x="158.5" y="359.9707">int</text><ellipse cx="55.5" cy="373.3516" fill="#84BE84" rx="3" ry="3" style="stroke:#038048;stroke-width:1.0;"/><text fill="#000000" font-family="sans-serif" font-size="14" lengthAdjust="spacing" textLength="93" x="64.5" y="377.5801">insererStation(</text><text fill="#428ECD" font-family="sans-serif" font-size="14" lengthAdjust="spacing" textLength="44" x="157.5" y="377.5801">Station</text><text fill="#000000" font-family="sans-serif" font-size="14" lengthAdjust="spacing" textLength="4" x="201.5" y="377.5801">,</text><text fill="#428ECD" font-family="sans-serif" font-size="14" lengthAdjust="spacing" textLength="44" x="209.5" y="377.5801">Station</text><text fill="#000000" font-family="sans-serif" font-size="14" lengthAdjust="spacing" textLength="4" x="253.5" y="377.5801">,</text><text fill="#428ECD" font-family="sans-serif" font-size="14" lengthAdjust="spacing" textLength="44" x="261.5" y="377.5801">Station</text><text fill="#000000" font-family="sans-serif" font-size="14" lengthAdjust="spacing" textLength="13" x="305.5" y="377.5801">) :</text><text fill="#008000" font-family="sans-serif" font-size="14" lengthAdjust="spacing" textLength="26" x="322.5" y="377.5801">void</text><ellipse cx="55.5" cy="390.9609" fill="#84BE84" rx="3" ry="3" style="stroke:#038048;stroke-width:1.0;"/><text fill="#000000" font-family="sans-serif" font-size="14" lengthAdjust="spacing" textLength="93" x="64.5" y="395.1895">insererStation(</text><text fill="#428ECD" font-family="sans-serif" font-size="14" lengthAdjust="spacing" textLength="44" x="157.5" y="395.1895">Station</text><text fill="#000000" font-family="sans-serif" font-size="14" lengthAdjust="spacing" textLength="13" x="201.5" y="395.1895">) :</text><text fill="#008000" font-family="sans-serif" font-size="14" lengthAdjust="spacing" textLength="26" x="218.5" y="395.1895">void</text><ellipse cx="55.5" cy="408.5703" fill="#84BE84" rx="3" ry="3" style="stroke:#038048;stroke-width:1.0;"/><text fill="#000000" font-family="sans-serif" font-size="14" lengthAdjust="spacing" textLength="112" x="64.5" y="412.7988">supprimerStation(</text><text fill="#428ECD" font-family="sans-serif" font-size="14" lengthAdjust="spacing" textLength="44" x="176.5" y="412.7988">Station</text><text fill="#000000" font-family="sans-serif" font-size="14" lengthAdjust="spacing" textLength="13" x="220.5" y="412.7988">) :</text><text fill="#008000" font-family="sans-serif" font-size="14" lengthAdjust="spacing" textLength="26" x="237.5" y="412.7988">void</text><ellipse cx="55.5" cy="426.1797" fill="#84BE84" rx="3" ry="3" style="stroke:#038048;stroke-width:1.0;"/><text fill="#000000" font-family="sans-serif" font-size="14" lengthAdjust="spacing" textLength="110" x="64.5" y="430.4082">stationDesservie(</text><text fill="#428ECD" font-family="sans-serif" font-size="14" lengthAdjust="spacing" textLength="44" x="174.5" y="430.4082">Station</text><text fill="#000000" font-family="sans-serif" font-size="14" lengthAdjust="spacing" textLength="13" x="218.5" y="430.4082">) :</text><text fill="#428ECD" font-family="sans-serif" font-size="14" lengthAdjust="spacing" textLength="51" x="235.5" y="430.4082">boolean</text></g><!--MD5=[855a072b279e63bdda3f5ee87283265e]
link Reseau to Ligne--><g id="link_Reseau_Ligne"><path codeLine="30" d="M199.5,165.21 C199.5,165.21 199.5,200.29 199.5,217.58 " fill="none" id="Reseau-Ligne" style="stroke:#181818;stroke-width:1.0;"/><polygon fill="#181818" points="199.5,230.73,203.5,221.73,199.5,225.73,195.5,221.73,199.5,230.73" style="stroke:#181818;stroke-width:1.0;"/><line style="stroke:#181818;stroke-width:1.0;" x1="199.5" x2="199.5" y1="225.73" y2="217.73"/><polygon fill="none" points="199.5,153.21,195.5,159.21,199.5,165.21,203.5,159.21,199.5,153.21" style="stroke:#181818;stroke-width:1.0;"/><text fill="#000000" font-family="sans-serif" font-size="13" lengthAdjust="spacing" textLength="34" x="200.5" y="197.4951">lignes</text></g><!--MD5=[bb0895f11cf39d59c5274613b51a22be]
link Ligne to Station--><g id="link_Ligne_Station"><path codeLine="31" d="M366.76,334 C366.76,334 394.37,334 406.71,334 " fill="none" id="Ligne-Station" style="stroke:#181818;stroke-width:1.0;"/><polygon fill="#181818" points="419.77,334,410.77,330,414.77,334,410.77,338,419.77,334" style="stroke:#181818;stroke-width:1.0;"/><line style="stroke:#181818;stroke-width:1.0;" x1="414.77" x2="406.77" y1="334" y2="334"/><polygon fill="none" points="354.76,334,360.76,338,366.76,334,360.76,330,354.76,334" style="stroke:#181818;stroke-width:1.0;"/><text fill="#000000" font-family="sans-serif" font-size="13" lengthAdjust="spacing" textLength="29" x="372.75" y="327.4951">trajet</text></g><!--MD5=[a14c05af025fcb139dde02c762b5f4a4]
@startuml

!includeurl https://raw.githubusercontent.com/manuvai/plantuml-utils/master/class_diagram_utils.puml

class Reseau {
    +void("creerLigne(int, Station, Station)")
    +void("creerLigne(int, List<Ligne>)")
    +member(Ligne, "recupererLigne(int)")
    +list(Ligne, "recupererLignesDesservantStation(Station)")
    +list(Station, "recupererStations()")
    +list(Ligne, "recupererItineraireLignes(Station, Station)")
}

class Station {
    -string(nom)
    +string("getNom()")
}

class Ligne {
    -int(noLigne)
    +member("", "Ligne(int, Station, Station)")
    +void("afficher()")
    +list(Station, "getTrajet()")
    +int("getNoLigne()")
    +void("insererStation(Station, Station, Station)")
    +void("insererStation(Station)")
    +void("supprimerStation(Station)")
    +member("boolean", "stationDesservie(Station)")
}

Reseau o- -> Ligne : lignes
Ligne o-right-> Station : trajet

@enduml

@startuml


hide empty members
hide empty methods



















class Reseau {
    +creerLigne(<color:#d2453f>int</color>, <color:#428ecd>Station</color>, <color:#428ecd>Station</color>) : <color:Green>void</color>
    +creerLigne(<color:#d2453f>int</color>, <color:#428ecd>List<Ligne></color>) : <color:Green>void</color>
    +recupererLigne(<color:#d2453f>int</color>) : <color:#428ecd>Ligne</color>
    +recupererLignesDesservantStation(<color:#428ecd>Station</color>) : <color:#428ecd>List</color><<color:#f69c3e>Ligne</color>>
    +recupererStations() : <color:#428ecd>List</color><<color:#f69c3e>Station</color>>
    +recupererItineraireLignes(<color:#428ecd>Station</color>, <color:#428ecd>Station</color>) : <color:#428ecd>List</color><<color:#f69c3e>Ligne</color>>
}

class Station {
    -nom : <color:#428ecd>String</color>
    +getNom() : <color:#428ecd>String</color>
}

class Ligne {
    -noLigne : <color:#d2453f>int</color>
    +Ligne(<color:#d2453f>int</color>, <color:#428ecd>Station</color>, <color:#428ecd>Station</color>) : <color:#428ecd></color>
    +afficher() : <color:Green>void</color>
    +getTrajet() : <color:#428ecd>List</color><<color:#f69c3e>Station</color>>
    +getNoLigne() : <color:#d2453f>int</color>
    +insererStation(<color:#428ecd>Station</color>, <color:#428ecd>Station</color>, <color:#428ecd>Station</color>) : <color:Green>void</color>
    +insererStation(<color:#428ecd>Station</color>) : <color:Green>void</color>
    +supprimerStation(<color:#428ecd>Station</color>) : <color:Green>void</color>
    +stationDesservie(<color:#428ecd>Station</color>) : <color:#428ecd>boolean</color>
}

Reseau o- -> Ligne : lignes
Ligne o-right-> Station : trajet

@enduml

PlantUML version 1.2022.7(Mon Aug 22 19:01:30 CEST 2022)
(GPL source distribution)
Java Runtime: Java(TM) SE Runtime Environment
JVM: Java HotSpot(TM) 64-Bit Server VM
Default Encoding: Cp1252
Language: fr
Country: FR
--></g></svg>